<?xml version="1.0" encoding="utf-8"?>
<!-- Generator: Adobe Illustrator 19.0.0, SVG Export Plug-In . SVG Version: 6.00 Build 0)  -->
<svg version="1.1" id="Layer_1" xmlns="http://www.w3.org/2000/svg" xmlns:xlink="http://www.w3.org/1999/xlink" x="0px" y="0px"
	 viewBox="-380 600.9 361 155" style="enable-background:new -380 600.9 361 155;" xml:space="preserve">
<style type="text/css">
	.st0{fill:#0E67B0;}
</style>
<g>
	<path class="st0" d="M-249.7,705.8c0.6-4.9,0.2-10.1-1.4-15.5c-0.2-0.8-1.8-6.5-10.4-12.8c-2.7-2-6-3.6-10.6-5.2
		c-23.4-8-38.1-17.2-37.6-23.3v-0.4c0-0.1-0.3-3.4,2.2-6.2c2.6-2.8,7.2-4.3,13.7-4.3h0.2c0.7,0,6.9,0.2,10.6,4.3
		c2.4,2.7,3.4,6.6,2.9,11.6l-0.2,1.8h42.6l0.3-1.1c0-0.2,1.4-4.8,0.4-10.8c-0.9-5.5-4.1-13.3-13.9-19.2c-9.5-5.6-23.5-8.5-41.6-8.5
		h-1.3c-4.2,0-19.1,0.4-32.8,5c-17.5,6-26.9,16.8-26.9,31.3c-0.1,0.8-0.4,6,2.3,12.3c2.7,6.2,9,14.7,23.7,20.1
		c1,0.4,2.1,0.8,3.2,1.3l24.8,11c0.4,0.2,7,3.7,6.8,10.2c0,0.7-0.6,15-16.7,15c-1.1,0-2.3-0.1-3.5-0.2c-0.1,0-8.1-0.9-12-6.2
		c-2-2.6-2.6-5.9-1.9-9.9l0.3-1.9h-43.4l-0.3,1.3c-0.1,0.5-2.3,12.5,4.7,22.7c4.5,6.6,11.7,10.9,21.5,12.7c1,0.2,12.5,2.9,28.7,2.9
		c7,0,13.9-0.5,20.5-1.5c6.6-1,12.9-2.6,18.9-4.8c0.1,0,1.2-0.5,3.1-1.5C-266.6,732.7-251.8,723.1-249.7,705.8z M-35.4,627.6
		c-6-8.5-16.7-12.9-31.7-12.9h-0.1c-0.3,0-8.2,0.5-18.7,3.8c-8.4,2.6-20,7.8-30.1,17.4l4.9-17.6l-48.4-0.4l-1.6,5.5
		c0.7,0.4,1.6,0.8,2.3,1.3c1.7,1.1,3.2,2.1,4.5,3.3c0.3,0.3,0.7,0.9,1,0.9c1.6,1.9,3,3.3,4.1,5c0.1,0.2,0.3,0.5,0.4,0.7
		c0.1,0.1,0.1,0.2,0.2,0.3c0.4,0.7,0.8,1.3,1.1,2c1.4,2.8,2.1,5.6,2.5,7.9c0.5,3,0.4,5.6,0.2,7.6v0.4c0,0.1,0,0.1,0,0.1
		c-0.1,0.2-0.1,0.4-0.1,0.5c0,0.2-0.1,0.4-0.1,0.6c0,0.2-0.1,0.4-0.1,0.6c0,0.1-0.1,0.3-0.1,0.4c-0.1,0.1-0.1,0.2-0.1,0.3
		c-0.1,0.6-0.2,0.9-0.2,0.9l-0.7,2.4h-24.7l-4.1,14.7l-0.2,1c0.8,0.4,1.6,0.8,2.3,1.2c1,0.6,1.9,1.2,2.7,1.8
		c8.8,6.5,10.7,12.4,11,13.6c5.1,17.9-2.2,30.4-9.3,37.7c-7.5,7.7-16.1,11.3-16.5,11.4h-0.2c-0.1,0.1-0.1,0.1-0.2,0.1h38.8
		l21.8-71.3c0.1-0.3,7.8-27.1,31.3-27.1h0.1c0,0,0.1,0,0.3,0c1.4,0,6.1,0.3,9.1,4.4c3.5,4.8,3.5,13.3,0,24.6l-21.4,69.5h49.8
		l22.5-74.5C-32.7,664.3-25.3,642.5-35.4,627.6z M-163.1,691c-0.2-0.8-1.8-6.5-10.4-12.8c-0.7-0.6-1.6-1.2-2.5-1.7
		c-2.3-1.3-4.8-2.4-8.1-3.5c-23.4-8-38.1-17.2-37.6-23.3v-0.4c0-0.1-0.4-3.4,2.1-6.2c2.6-2.9,7.2-4.4,13.7-4.4h0.2
		c0.7,0,6.9,0.2,10.6,4.3c2.4,2.7,3.4,6.6,2.9,11.6l-0.2,1.7h42.6l0.3-1.1c0-0.1,1.3-4.6,0.6-10.3c-0.8-5.4-3.8-13-13.1-18.9
		c-9.5-6-23.7-9-42.4-9h-1.3c-5.8,0-25.6,0.6-40.9,8.3c9,6,12,13.7,12.9,19.2c1,6.4-0.4,11.4-0.5,11.6l-0.7,2.4h-30.4
		c1,6.8,5.7,19.6,25.1,26.9c1.6,0.6,3,1.2,4.2,1.7l24.4,10.8c0.5,0.2,7.1,3.7,6.9,10.2c0,0.6-0.6,14.9-16.7,14.9
		c-1.1,0-2.3-0.1-3.5-0.2c-0.1,0-8.1-0.9-12-6.2c-2-2.7-2.6-6-1.9-10l0.3-1.9h-7.7c-0.1,0.7-0.1,1.3-0.2,2
		c-2,16.4-14.8,26.1-22,30.3c3.5,2.1,7.7,3.5,12.4,4.4c1,0.2,12.5,2.9,28.7,2.9c13.2,0,25.7-1.7,37-5.2c0.8-0.3,1.6-0.5,2.4-0.8
		c0.3-0.2,8.6-3.6,15.9-11.1C-165.2,720.2-158.1,708.2-163.1,691z"/>
</g>
</svg>
